<?xml version="1.0" encoding="utf-8"?>
<!-- Generator: Adobe Illustrator 16.0.4, SVG Export Plug-In . SVG Version: 6.00 Build 0)  -->
<!DOCTYPE svg PUBLIC "-//W3C//DTD SVG 1.1//EN" "http://www.w3.org/Graphics/SVG/1.1/DTD/svg11.dtd">
<svg version="1.1" id="gr_x5F_icon26_x5F_youTube_x5F_liveEmbed"
	 xmlns="http://www.w3.org/2000/svg" xmlns:xlink="http://www.w3.org/1999/xlink" x="0px" y="0px" width="250px" height="250px"
	 viewBox="0 0 250 250" enable-background="new 0 0 250 250" xml:space="preserve">
<g id="gr_x5F_big_70_">
	<path id="gr_281_" fill="#F3BA48" d="M237.666,172.701c0,9.543-6.757,21.247-15.022,26.019l-82.62,47.701
		c-8.263,4.771-21.785,4.771-30.044,0L27.355,198.72c-8.263-4.771-15.021-16.476-15.021-26.019V77.299
		c0-9.542,6.759-21.248,15.021-26.019l82.624-47.702c8.259-4.771,21.781-4.771,30.044,0l82.62,47.702
		c8.266,4.771,15.022,16.476,15.022,26.019V172.701z"/>
	<path fill="#FFFFFF" d="M97.197,105.891v6.313c0,0.809-0.454,1.171-0.809,1.443l-19.377,11.538l19.377,11.167
		c0.355,0.272,0.809,0.636,0.809,1.444v6.307c0,1.443-1.353,2.169-2.525,1.443l-31.271-18.472c-0.446-0.271-0.899-0.99-0.899-1.534
		v-0.453c0-0.537,0.453-1.256,0.899-1.528l31.271-19.105C95.844,103.729,97.197,104.454,97.197,105.891z M186.602,123.56
		l-31.271-19.105c-1.18-0.726-2.532,0-2.532,1.437v6.313c0,0.809,0.362,1.171,0.815,1.443l19.287,11.538l-19.287,11.167
		c-0.453,0.272-0.815,0.636-0.815,1.444v6.307c0,1.443,1.353,2.169,2.532,1.443l31.271-18.472c0.446-0.271,0.899-0.99,0.899-1.534
		v-0.453C187.501,124.55,187.048,123.832,186.602,123.56z M142.568,128.396c3.496-1.796,3.505-4.746,0.018-6.56l-28.055-14.607
		c-3.484-1.813-6.333-0.083-6.333,3.848v27.821c0,3.931,2.86,5.678,6.354,3.882L142.568,128.396z"/>
</g>
</svg>
